<?xml version="1.0" standalone="no"?>
<!DOCTYPE svg PUBLIC "-//W3C//DTD SVG 20010904//EN"
 "http://www.w3.org/TR/2001/REC-SVG-20010904/DTD/svg10.dtd">
<svg version="1.0" xmlns="http://www.w3.org/2000/svg"
 width="1278.000000pt" height="1298.000000pt" viewBox="0 0 1278.000000 1298.000000"
 preserveAspectRatio="xMidYMid meet">

<g transform="translate(0.000000,1298.000000) scale(0.100000,-0.100000)"
fill="#000000" stroke="none">
<path d="M0 6490 l0 -6490 6390 0 6390 0 0 6490 0 6490 -6390 0 -6390 0 0
-6490z m9063 682 c64 -28 105 -69 141 -140 13 -26 110 -328 216 -672 106 -344
195 -631 198 -637 3 -10 -33 -13 -162 -13 l-165 0 -34 108 c-18 59 -103 333
-188 609 -84 276 -157 497 -160 490 -4 -7 -47 -145 -97 -307 -51 -162 -133
-430 -184 -595 l-93 -300 -167 -3 -166 -2 18 57 c10 32 98 317 195 633 97 316
188 598 202 625 29 60 85 120 135 146 85 44 213 44 311 1z m1251 7 c13 -7 30
-24 36 -40 18 -43 -4 -77 -75 -113 -132 -68 -216 -150 -276 -271 -75 -153 -86
-307 -34 -474 56 -178 206 -326 384 -381 78 -25 231 -27 314 -5 158 41 300
157 375 308 87 174 83 394 -11 572 -46 86 -155 192 -247 240 -41 21 -81 46
-87 54 -22 27 -11 82 19 104 24 18 32 19 65 9 105 -32 274 -170 345 -282 233
-367 131 -841 -229 -1067 -186 -116 -391 -140 -601 -71 -104 35 -179 79 -264
157 -177 162 -270 416 -238 649 35 261 175 463 400 582 83 44 88 45 124 29z
m-8464 -734 l0 -735 -155 0 -155 0 0 735 0 735 155 0 155 0 0 -735z m5850 558
l0 -178 167 0 168 0 3 -137 3 -138 -723 -1 c-527 0 -732 -4 -755 -12 -151 -56
-227 -238 -159 -382 29 -62 66 -97 131 -126 106 -48 235 -18 306 71 l32 40
165 0 164 0 -6 -27 c-20 -81 -78 -177 -154 -253 -118 -118 -235 -165 -407
-165 -75 0 -117 5 -170 22 -143 45 -269 153 -336 288 -167 338 0 703 366 801
63 17 111 19 477 19 l408 0 0 178 0 177 160 0 160 0 0 -177z m2869 -19 c21
-26 21 -37 21 -464 0 -427 0 -438 -21 -464 -26 -33 -77 -36 -105 -5 -18 20
-19 43 -19 469 0 426 1 449 19 469 28 31 79 28 105 -5z m-7724 -160 c162 -42
298 -178 358 -359 18 -54 20 -95 24 -407 l5 -348 -161 0 -161 0 0 311 c0 342
-3 366 -56 428 -101 117 -286 100 -369 -33 l-30 -49 -3 -329 -3 -328 -155 0
-154 0 0 555 0 555 155 0 155 0 0 -30 0 -30 53 26 c106 55 228 68 342 38z
m1398 -7 c172 -55 301 -189 359 -376 28 -87 29 -250 4 -336 -42 -141 -141
-276 -250 -340 -92 -54 -143 -67 -261 -68 -119 -1 -190 17 -267 68 l-38 25 -2
-217 -3 -218 -155 0 -155 0 -3 733 -2 732 160 0 160 0 0 -35 c0 -19 2 -35 4
-35 2 0 25 12 51 26 121 68 265 83 398 41z m1302 -11 c75 -20 126 -49 172 -99
96 -104 103 -145 103 -619 l0 -378 -155 0 -155 0 -1 28 c-1 15 -1 33 0 40 3
17 -1 16 -58 -22 -86 -58 -247 -82 -372 -55 -211 45 -335 231 -285 428 31 122
110 194 266 242 65 21 96 24 230 24 85 0 169 -2 185 -5 l30 -5 0 80 0 80 -277
3 -278 2 0 135 0 135 273 0 c195 0 286 -4 322 -14z m2155 -671 l0 -155 170 0
170 0 0 -136 0 -136 -177 5 c-127 3 -193 9 -230 21 -109 35 -196 122 -228 229
-16 55 -32 283 -22 311 6 14 28 16 162 16 l155 0 0 -155z"/>
<path d="M3977 6516 c-142 -39 -221 -196 -172 -337 43 -122 172 -195 297 -168
122 26 196 111 206 236 14 182 -154 319 -331 269z"/>
<path d="M5235 6187 c-81 -27 -115 -65 -115 -127 0 -95 96 -143 211 -106 70
23 110 56 142 115 37 67 36 96 -5 111 -51 18 -187 22 -233 7z"/>
</g>
</svg>
